# xmcd
#
# Track frame offsets:
#	150
#	20739
#	36748
#	55762
#	72226
#	96306
#	118204
#	135879
#	156726
#	177958
#	194628
#	210084
#	228689
#
# Disc length: 3281 seconds
# Revision: 0
# Processed by: cddbd v1.5.2PL0 Copyright (c) Steve Scherf et al.
# Submitted via: dBpowerAMP V12.0
#
DISCID=c40ccf0d
DTITLE=The Kingmixers - Riding With Mr. Blues
DYEAR=2012
DGENRE=Blues
TTITLE0=Alone Again
TTITLE1=Southern Train
TTITLE2=Sittin' On My Porch
TTITLE3=Jump The Q
TTITLE4=Die Tryin'
TTITLE5=Riding With Mr. Blues
TTITLE6=What'd I Say
TTITLE7=Granny's At The Wheel
TTITLE8=Creepin'
TTITLE9=Feel Like Loving
TTITLE10=Belgian Beer Boogie 
TTITLE11=Gotta Good Woman
TTITLE12=Living Easy
EXTD=
EXTT0=
EXTT1=
EXTT2=
EXTT3=
EXTT4=
EXTT5=
EXTT6=
EXTT7=
EXTT8=
EXTT9=
EXTT10=
EXTT11=
EXTT12=
PLAYORDER=
